# WaveFront *.obj file (generated by Autodesk ATF)

mtllib cuboid_triangle_1x1.mtl

g Bryła1

v 0.000000 0.000000 0.000000
v 0.000000 0.000000 1.000000
v 0.000000 1.000000 0.000000
v 0.000000 1.000000 1.000000
v 0.866025 0.500000 0.000000
v 0.866025 0.500000 1.000000
vt 0.000000 0.000000 0.000000
vt 0.100000 0.000000 0.000000
vt 0.100000 0.100000 0.000000
vt 0.000000 0.100000 0.000000
vt 0.000000 0.000000 0.000000
vt 0.100000 0.000000 0.000000
vt 0.100000 0.100000 0.000000
vt 0.000000 0.100000 0.000000
vt 0.000000 0.000000 0.000000
vt 0.100000 0.000000 0.000000
vt 0.100000 0.100000 0.000000
vt 0.000000 0.100000 0.000000
vt 0.028868 -0.050000 0.000000
vt 0.028868 0.050000 0.000000
vt -0.057735 0.000000 0.000000
vt -0.028868 0.050000 0.000000
vt -0.028868 -0.050000 0.000000
vt 0.057735 0.000000 0.000000
vn 0.050000 0.086603 0.000000
vn 0.050000 0.086603 0.000000
vn 0.050000 0.086603 0.000000
vn 0.050000 0.086603 0.000000
vn 0.050000 -0.086603 0.000000
vn 0.050000 -0.086603 0.000000
vn 0.050000 -0.086603 0.000000
vn 0.050000 -0.086603 0.000000
vn -0.100000 0.000000 0.000000
vn -0.100000 0.000000 0.000000
vn -0.100000 0.000000 0.000000
vn -0.100000 0.000000 0.000000
vn 0.000000 0.000000 -0.100000
vn 0.000000 0.000000 -0.100000
vn 0.000000 0.000000 -0.100000
vn 0.000000 0.000000 0.100000
vn 0.000000 0.000000 0.100000
vn 0.000000 0.000000 0.100000
usemtl 191,191,191
f 5/1/1 3/2/2 6/4/4
f 6/4/4 3/2/2 4/3/3
f 1/5/5 5/6/6 2/8/8
f 2/8/8 5/6/6 6/7/7
f 3/9/9 1/10/10 4/12/12
f 4/12/12 1/10/10 2/11/11
f 1/13/13 3/14/14 5/15/15
f 4/16/16 2/17/17 6/18/18

# 6 vertices
# 18 texture params
# 18 normals
# 8 facets

# 1 groups
